<?xml version="1.0" encoding="UTF-8" standalone="no"?>
<svg xmlns="http://www.w3.org/2000/svg" viewBox="0 0 24 24"><title>Barometer</title><g id="Barometer"><path d="M12,6.5a.5.5,0,0,0,.5-.5V5a.5.5,0,0,0-1,0V6A.5.5,0,0,0,12,6.5Z" style="fill:#303c42"/><path d="M7.93,6a.5.5,0,0,0-.87.5l.5.87a.5.5,0,0,0,.87-.5Z" style="fill:#303c42"/><path d="M5.32,9.57l-.87-.5a.5.5,0,0,0-.5.87l.87.5a.5.5,0,0,0,.5-.87Z" style="fill:#303c42"/><path d="M20,18.07l-.87-.5a.5.5,0,0,0-.5.87l.87.5a.5.5,0,1,0,.5-.87Z" style="fill:#303c42"/><path d="M4.5,14a.5.5,0,0,0-.5-.5H3a.5.5,0,0,0,0,1H4A.5.5,0,0,0,4.5,14Z" style="fill:#303c42"/><path d="M19.5,14a.5.5,0,0,0,.5.5h1a.5.5,0,0,0,0-1H20A.5.5,0,0,0,19.5,14Z" style="fill:#303c42"/><path d="M4.82,17.57l-.87.5a.5.5,0,0,0,.5.87l.87-.5a.5.5,0,0,0-.5-.87Z" style="fill:#303c42"/><path d="M19.54,9.07l-.87.5a.5.5,0,0,0,.5.87l.87-.5a.5.5,0,1,0-.5-.87Z" style="fill:#303c42"/><path d="M16.75,5.77a.5.5,0,0,0-.68.18l-.5.87a.5.5,0,0,0,.87.5l.5-.87A.5.5,0,0,0,16.75,5.77Z" style="fill:#303c42"/><path d="M12.5,8.46a.5.5,0,0,0-1,0l-.89,10.11A2,2,0,0,0,10,20a2,2,0,0,0,4,0,2,2,0,0,0-.61-1.44Z" style="fill:#303c42"/><path d="M12,2A12,12,0,0,0,1.46,19.74a.5.5,0,0,0,.3.24.51.51,0,0,0,.38,0L3,19.46a.5.5,0,0,0,.2-.68,10,10,0,1,1,17.57,0,.5.5,0,0,0,.2.68l.88.48a.5.5,0,0,0,.24.06l.14,0a.5.5,0,0,0,.3-.24A12,12,0,0,0,12,2Z" style="fill:#303c42"/></g>
	<metadata>
		<rdf:RDF xmlns:rdf="http://www.w3.org/1999/02/22-rdf-syntax-ns#" xmlns:rdfs="http://www.w3.org/2000/01/rdf-schema#" xmlns:dc="http://purl.org/dc/elements/1.1/">
			<rdf:Description about="https://iconscout.com/legal#licenses" dc:title="weather; forcast; barometer; pressure; dashboard" dc:description="weather; forcast; barometer; pressure; dashboard" dc:publisher="Iconscout" dc:date="2017-02-21" dc:format="image/svg+xml" dc:language="en">
				<dc:creator>
					<rdf:Bag>
						<rdf:li>Alpár - Etele Méder</rdf:li>
					</rdf:Bag>
				</dc:creator>
			</rdf:Description>
		</rdf:RDF>
    </metadata></svg>
