<?xml version="1.0" encoding="UTF-8" standalone="no"?>
<svg xmlns="http://www.w3.org/2000/svg" viewBox="0 0 24 24"><title>Humidity</title><g id="Humidity"><path d="M.5,11a1.74,1.74,0,0,1,1.15.41A2.71,2.71,0,0,0,3.37,12a2.71,2.71,0,0,0,1.72-.59,1.82,1.82,0,0,1,2.3,0,2.82,2.82,0,0,0,3.45,0A1.74,1.74,0,0,1,12,11a.5.5,0,0,0,0-1,2.71,2.71,0,0,0-1.72.59,1.82,1.82,0,0,1-2.31,0A2.71,2.71,0,0,0,6.25,10a2.71,2.71,0,0,0-1.72.59A1.74,1.74,0,0,1,3.37,11a1.74,1.74,0,0,1-1.15-.41A2.71,2.71,0,0,0,.5,10a.5.5,0,0,0,0,1Z" style="fill:#303c42"/><path d="M12,20a.5.5,0,0,0,0-1,2.71,2.71,0,0,0-1.72.59,1.82,1.82,0,0,1-2.31,0A2.71,2.71,0,0,0,6.25,19a2.71,2.71,0,0,0-1.72.59A1.74,1.74,0,0,1,3.37,20a1.74,1.74,0,0,1-1.15-.41A2.71,2.71,0,0,0,.5,19a.5.5,0,0,0,0,1,1.74,1.74,0,0,1,1.15.41A2.71,2.71,0,0,0,3.37,21a2.71,2.71,0,0,0,1.72-.59,1.82,1.82,0,0,1,2.3,0,2.82,2.82,0,0,0,3.45,0A1.74,1.74,0,0,1,12,20Z" style="fill:#303c42"/><path d="M.5,17a1.74,1.74,0,0,1,1.15.41A2.71,2.71,0,0,0,3.37,18a.5.5,0,1,0,0-1,1.74,1.74,0,0,1-1.15-.41A2.71,2.71,0,0,0,.5,16a.5.5,0,0,0,0,1Z" style="fill:#303c42"/><path d="M13.77,16.58A3,3,0,0,0,12,16a2.71,2.71,0,0,0-1.72.59,1.82,1.82,0,0,1-2.31,0A2.71,2.71,0,0,0,6.25,16a.5.5,0,1,0,0,1,1.74,1.74,0,0,1,1.15.41,2.82,2.82,0,0,0,3.45,0A1.74,1.74,0,0,1,12,17a2,2,0,0,1,1.23.42A3,3,0,0,0,15,18a.5.5,0,0,0,0-1A2,2,0,0,1,13.77,16.58Z" style="fill:#303c42"/><path d="M.5,14a1.74,1.74,0,0,1,1.15.41A2.71,2.71,0,0,0,3.37,15a2.71,2.71,0,0,0,1.72-.59A1.74,1.74,0,0,1,6.25,14a.5.5,0,0,0,0-1,2.71,2.71,0,0,0-1.72.59A1.74,1.74,0,0,1,3.37,14a1.74,1.74,0,0,1-1.15-.41A2.71,2.71,0,0,0,.5,13a.5.5,0,0,0,0,1Z" style="fill:#303c42"/><path d="M17.75,14a.5.5,0,0,0,0-1,2.71,2.71,0,0,0-1.72.59,1.82,1.82,0,0,1-2.3,0,2.81,2.81,0,0,0-3.45,0A1.74,1.74,0,0,1,9.12,14a.5.5,0,0,0,0,1,2.71,2.71,0,0,0,1.72-.59,1.82,1.82,0,0,1,2.3,0,2.81,2.81,0,0,0,3.44,0A1.74,1.74,0,0,1,17.75,14Z" style="fill:#303c42"/><path d="M15.34.13a.5.5,0,0,0-.67,0A36.61,36.61,0,0,0,7.82,8.77a.5.5,0,0,0,.2.67,6.16,6.16,0,0,1,.56.35,1.42,1.42,0,0,0,.25.15.58.58,0,0,0,.22,0h.18a.5.5,0,0,0,.2,0,1.74,1.74,0,0,0,.27-.18A3.67,3.67,0,0,1,12,9a1.5,1.5,0,0,1,1.5,1.5,1.48,1.48,0,0,1-.36,1,.5.5,0,0,0,.2.79,4.51,4.51,0,0,1,1,.55,1.45,1.45,0,0,0,.25.15.52.52,0,0,0,.23,0H15a.5.5,0,0,0,.2-.05,1.75,1.75,0,0,0,.27-.17A3.66,3.66,0,0,1,17.75,12a1.5,1.5,0,0,1,0,3h-.12a1.21,1.21,0,0,0-.46.22,4.44,4.44,0,0,1-.86.5.5.5,0,0,0-.18.79,1.48,1.48,0,0,1,.38,1A1.5,1.5,0,0,1,15,19a3.87,3.87,0,0,1-.9-.11.51.51,0,0,0-.43.15.59.59,0,0,0-.17.46A1.5,1.5,0,0,1,12,21h-.12a1.22,1.22,0,0,0-.47.22,4.39,4.39,0,0,1-1,.55.5.5,0,0,0-.09.9A9,9,0,0,0,24,15C24,8,15.69.45,15.34.13Z" style="fill:#303c42"/></g>
	<metadata>
		<rdf:RDF xmlns:rdf="http://www.w3.org/1999/02/22-rdf-syntax-ns#" xmlns:rdfs="http://www.w3.org/2000/01/rdf-schema#" xmlns:dc="http://purl.org/dc/elements/1.1/">
			<rdf:Description about="https://iconscout.com/legal#licenses" dc:title="weather; forcast; humidity; precipitation" dc:description="weather; forcast; humidity; precipitation" dc:publisher="Iconscout" dc:date="2017-02-21" dc:format="image/svg+xml" dc:language="en">
				<dc:creator>
					<rdf:Bag>
						<rdf:li>Alpár - Etele Méder</rdf:li>
					</rdf:Bag>
				</dc:creator>
			</rdf:Description>
		</rdf:RDF>
    </metadata></svg>
